<?xml version="1.0" encoding="UTF-8" standalone="no"?>
<!-- Generator: Adobe Illustrator 27.5.0, SVG Export Plug-In . SVG Version: 6.00 Build 0)  -->

<svg
   version="1.1"
   x="0px"
   y="0px"
   viewBox="0 0 54870.5 66262.5"
   xml:space="preserve"
   id="svg6"
   sodipodi:docname="logo_orange.svg"
   inkscape:export-filename="../Documents/WebDevCourses/Projets portfolio/react-native_pick-a-pic/assets/images/logo.png"
   inkscape:export-xdpi="96"
   inkscape:export-ydpi="96"
   inkscape:version="1.3 (0e150ed, 2023-07-21)"
   width="54870.5"
   height="66262.5"
   xmlns:inkscape="http://www.inkscape.org/namespaces/inkscape"
   xmlns:sodipodi="http://sodipodi.sourceforge.net/DTD/sodipodi-0.dtd"
   xmlns:xlink="http://www.w3.org/1999/xlink"
   xmlns="http://www.w3.org/2000/svg"
   xmlns:svg="http://www.w3.org/2000/svg"><defs
   id="defs6"><linearGradient
     id="linearGradient2"
     inkscape:collect="always"><stop
       style="stop-color:#000000;stop-opacity:1;"
       offset="0"
       id="stop2" /><stop
       style="stop-color:#000000;stop-opacity:0;"
       offset="1"
       id="stop3" /></linearGradient><linearGradient
     id="swatch1"
     inkscape:swatch="solid"><stop
       style="stop-color:#000000;stop-opacity:1;"
       offset="0"
       id="stop1" /></linearGradient><linearGradient
     inkscape:collect="always"
     xlink:href="#linearGradient2"
     id="linearGradient3"
     x1="193.01826"
     y1="247.92551"
     x2="302.75928"
     y2="247.92551"
     gradientUnits="userSpaceOnUse" /></defs><sodipodi:namedview
   id="namedview6"
   pagecolor="#505050"
   bordercolor="#eeeeee"
   borderopacity="1"
   inkscape:showpageshadow="0"
   inkscape:pageopacity="0"
   inkscape:pagecheckerboard="0"
   inkscape:deskcolor="#505050"
   inkscape:zoom="3.5178001"
   inkscape:cx="290.52248"
   inkscape:cy="224.00363"
   inkscape:window-width="3440"
   inkscape:window-height="1387"
   inkscape:window-x="0"
   inkscape:window-y="25"
   inkscape:window-maximized="1"
   inkscape:current-layer="svg6" />&#10;<g
   id="BACKGROUND"
   transform="translate(-80589.367,-76387.695)">&#10;	<rect
   x="0.093999997"
   y="-0.063000001"
   style="fill:#ffffff"
   width="500"
   height="500"
   id="rect1" />&#10;</g>&#10;<g
   id="OBJECTS"
   transform="translate(-80621.207,-76416.583)"
   inkscape:export-filename="../Documents/WebDevCourses/Projets portfolio/react-native_pick-a-pic/assets/images/logo.png"
   inkscape:export-xdpi="96"
   inkscape:export-ydpi="96"
   style="fill:#aa1781;fill-opacity:1;fill-rule:nonzero">&#10;	<g
   id="g6"
   style="fill:#aa1781;fill-opacity:1;fill-rule:nonzero">&#10;		&#10;		&#10;		<g
   id="g5"
   transform="translate(76.526269)"
   style="fill:#aa1781;fill-opacity:1;fill-rule:nonzero">&#10;			<path
   style="fill:#aa1781;fill-opacity:1;fill-rule:nonzero;stroke:none;stroke-opacity:1"
   d="m 192.738,238.623 h -8 c 0,-7.949 -6.467,-14.417 -14.417,-14.417 v -8 c 12.361,0 22.417,10.057 22.417,22.417 z"
   id="path3" />&#10;			<path
   style="fill:#aa1781;fill-opacity:1;fill-rule:nonzero;stroke:none"
   d="m 173.103,258.184 c -12.361,0 -22.417,-10.056 -22.417,-22.416 h 8 c 0,7.949 6.467,14.416 14.417,14.416 z"
   id="path4" />&#10;			<linearGradient
   id="SVGID_1_"
   gradientUnits="userSpaceOnUse"
   x1="122.3288"
   y1="188.66251"
   x2="220.3981"
   y2="286.7319"
   style="fill:url(#linearGradient3)">&#10;				<stop
   offset="0"
   style="stop-color:#fb8500;stop-opacity:1;fill:url(#linearGradient3)"
   id="stop4" />&#10;				<stop
   offset="0.89772725"
   style="stop-color:#023047;stop-opacity:1;fill:url(#linearGradient3)"
   id="stop5" />&#10;			</linearGradient>&#10;			<path
   style="fill:#aa1781;fill-opacity:1;fill-rule:nonzero;stroke:none;stroke-opacity:1"
   d="M 204.345,181.663 H 138.38 c -12.07,0 -21.888,9.819 -21.888,21.891 v 65.959 c 0,12.072 9.818,21.894 21.888,21.894 h 24.254 l -12.849,22.781 h 9.337 l 7.571,-13.42 v 13.42 h 9.336 v -13.429 l 7.577,13.429 h 9.336 l -12.853,-22.781 h 24.256 c 12.07,0 21.888,-9.822 21.888,-21.894 v -65.959 c 0.001,-12.072 -9.817,-21.891 -21.888,-21.891 z m -32.984,85.754 c -16.7,0 -30.239,-13.541 -30.239,-30.243 0,-16.703 13.538,-30.244 30.239,-30.244 16.706,0 30.246,13.541 30.246,30.244 0,16.702 -13.54,30.243 -30.246,30.243 z m 33.042,-56.989 v 0 c -3.83,0 -6.964,-3.134 -6.964,-6.964 0,-3.83 3.134,-6.964 6.964,-6.964 v 0 c 3.83,0 6.964,3.134 6.964,6.964 0,3.83 -3.134,6.964 -6.964,6.964 z"
   id="path5" />&#10;		</g>&#10;	</g>&#10;</g>&#10;&#10;</svg>
